<svg id="flat" height="512" viewBox="0 0 512 512" width="512"
	xmlns="http://www.w3.org/2000/svg">
	<path id="body" d="m43.29928 312a8 8 0 0 1 -5.65685-2.34315l-11.31371-11.3137a8 8 0 0 1 -2.34315-5.65686v-48.04371a8 8 0 0 1 4.03089-6.94594l50.12454-28.64259a8 8 0 0 1 3.96909-1.05405h50.56177a8 8 0 0 1 5.65686 2.34315l13.65685 13.65685h270.11143a8 8 0 0 1 3.57771.84458l62.31086 31.15542v36.68629a8 8 0 0 1 -2.34314 5.65686l-11.31371 11.3137a8 8 0 0 1 -5.65686 2.34315z" fill="#e04236"/>
	<path d="m335.98557 224-62.05438-38.784a8 8 0 0 0 -4.24-1.216h-17.88935a8 8 0 0 0 -7.42782 10.97113l11.61155 29.02887z" fill="#b6f7f5"/>
	<path d="m448 256h40v16h-40z" fill="#efe8e0"/>
	<circle id="rightWheel" cx="391.986" cy="296" fill="#efe8e0" r="32"/>
	<path d="m392 336a40 40 0 1 1 40-40 40.04708 40.04708 0 0 1 -40 40zm0-64a24 24 0 1 0 24 24 24.02624 24.02624 0 0 0 -24-24z" fill="#544d4c"/>
	<circle cx="392" cy="296" fill="#544d4c" r="8"/>
	<circle id="leftWheel" cx="95.986" cy="296" fill="#efe8e0" r="32"/>
	<path d="m96 336a40 40 0 1 1 40-40 40.04708 40.04708 0 0 1 -40 40zm0-64a24 24 0 1 0 24 24 24.02624 24.02624 0 0 0 -24-24z" fill="#544d4c"/>
	<circle cx="96" cy="296" fill="#544d4c" r="8"/>
	<g id="stripes" fill="#b31724">
		<path d="m264.41016 266.53125 15.15722 45.46875h16.86719l-16.43457-49.29688v-38.70312h-16v40a7.97053 7.97053 0 0 0 .41016 2.53125z"/>
		<path d="m160 262.70312v-38.70312h-8l-8-8v46.70312a15.938 15.938 0 0 0 .82031 5.0586l14.74512 44.23828h16.8667z"/>
		<path d="m176 248h24v16h-24z"/>
	</g>
	<path d="m199.98557 224v-24a8 8 0 0 0 -8-8h-11.05573a8 8 0 0 0 -7.15541 4.42229l-13.78886 27.57771z" fill="#8c410b"/>
	<path d="m24 248h32v16h-32z" fill="#eeac13"/>
</svg>